<svg width="25" height="25" viewBox="0 0 25 25" fill="none" xmlns="http://www.w3.org/2000/svg">
<path d="M11.1406 9.30946V10.7438H10.0906V12.497H11.1406V17.7084H13.2989V12.497H14.7468C14.7468 12.497 14.8833 11.6563 14.9489 10.7365H13.3072V9.53862C13.3072 9.35841 13.5427 9.11779 13.776 9.11779H14.951V7.29175H13.352C11.0875 7.29175 11.1406 9.04696 11.1406 9.30946Z" fill="white"/>
<path d="M6.25004 4.16659C5.69751 4.16659 5.1676 4.38608 4.7769 4.77678C4.3862 5.16748 4.16671 5.69738 4.16671 6.24992V18.7499C4.16671 19.3025 4.3862 19.8324 4.7769 20.2231C5.1676 20.6138 5.69751 20.8333 6.25004 20.8333H18.75C19.3026 20.8333 19.8325 20.6138 20.2232 20.2231C20.6139 19.8324 20.8334 19.3025 20.8334 18.7499V6.24992C20.8334 5.69738 20.6139 5.16748 20.2232 4.77678C19.8325 4.38608 19.3026 4.16659 18.75 4.16659H6.25004ZM6.25004 2.08325H18.75C19.8551 2.08325 20.9149 2.52224 21.6963 3.30364C22.4777 4.08504 22.9167 5.14485 22.9167 6.24992V18.7499C22.9167 19.855 22.4777 20.9148 21.6963 21.6962C20.9149 22.4776 19.8551 22.9166 18.75 22.9166H6.25004C5.14497 22.9166 4.08516 22.4776 3.30376 21.6962C2.52236 20.9148 2.08337 19.855 2.08337 18.7499V6.24992C2.08337 5.14485 2.52236 4.08504 3.30376 3.30364C4.08516 2.52224 5.14497 2.08325 6.25004 2.08325Z" fill="white"/>
</svg>
