<svg width="25" height="25" viewBox="0 0 25 25" fill="none" xmlns="http://www.w3.org/2000/svg">
<path d="M17.7083 13.6771V17.5281H15.476V13.9344C15.476 13.0323 15.1531 12.4167 14.3448 12.4167C13.7281 12.4167 13.3604 12.8313 13.1989 13.2334C13.1406 13.3771 13.125 13.5771 13.125 13.7771V17.5281H10.8916C10.8916 17.5281 10.9218 11.4427 10.8916 10.8125H13.125V11.7636L13.1104 11.7854H13.125V11.7646C13.4218 11.3063 13.951 10.6542 15.1375 10.6542C16.6062 10.6542 17.7083 11.6146 17.7083 13.6771ZM8.55517 7.57397C7.79163 7.57397 7.29163 8.07606 7.29163 8.73439C7.29163 9.38023 7.77704 9.89585 8.526 9.89585H8.54058C9.31975 9.89585 9.80413 9.37918 9.80413 8.73439C9.78954 8.07606 9.31975 7.57397 8.55517 7.57397ZM7.42392 17.5281H9.65725V10.8125H7.42392V17.5281Z" fill="#FFFCFC"/>
<path d="M6.25004 4.16659C5.69751 4.16659 5.1676 4.38608 4.7769 4.77678C4.3862 5.16748 4.16671 5.69738 4.16671 6.24992V18.7499C4.16671 19.3025 4.3862 19.8324 4.7769 20.2231C5.1676 20.6138 5.69751 20.8333 6.25004 20.8333H18.75C19.3026 20.8333 19.8325 20.6138 20.2232 20.2231C20.6139 19.8324 20.8334 19.3025 20.8334 18.7499V6.24992C20.8334 5.69738 20.6139 5.16748 20.2232 4.77678C19.8325 4.38608 19.3026 4.16659 18.75 4.16659H6.25004ZM6.25004 2.08325H18.75C19.8551 2.08325 20.9149 2.52224 21.6963 3.30364C22.4777 4.08504 22.9167 5.14485 22.9167 6.24992V18.7499C22.9167 19.855 22.4777 20.9148 21.6963 21.6962C20.9149 22.4776 19.8551 22.9166 18.75 22.9166H6.25004C5.14497 22.9166 4.08516 22.4776 3.30376 21.6962C2.52236 20.9148 2.08337 19.855 2.08337 18.7499V6.24992C2.08337 5.14485 2.52236 4.08504 3.30376 3.30364C4.08516 2.52224 5.14497 2.08325 6.25004 2.08325Z" fill="#FFFCFC"/>
</svg>
